<svg xmlns="http://www.w3.org/2000/svg" viewBox="0 0 900 1100" role="img" aria-label="Green tropical leaves">
  <defs>
    <linearGradient id="bg" x1="0" x2="1" y1="0" y2="1">
      <stop offset="0" stop-color="#f7f5f0"/>
      <stop offset="0.55" stop-color="#fbfaf7"/>
      <stop offset="1" stop-color="#efe8de"/>
    </linearGradient>
    <linearGradient id="leaf" x1="0" x2="1" y1="0" y2="1">
      <stop offset="0" stop-color="#0f3c17"/>
      <stop offset="0.5" stop-color="#2f7a2d"/>
      <stop offset="1" stop-color="#0b2b12"/>
    </linearGradient>
    <linearGradient id="leafLight" x1="0" x2="1" y1="0" y2="1">
      <stop offset="0" stop-color="#5ba849"/>
      <stop offset="1" stop-color="#1f5d24"/>
    </linearGradient>
    <filter id="softShadow" x="-20%" y="-20%" width="140%" height="140%">
      <feDropShadow dx="0" dy="18" stdDeviation="18" flood-color="#19310f" flood-opacity="0.18"/>
    </filter>
  </defs>
  <rect width="900" height="1100" fill="url(#bg)"/>
  <g filter="url(#softShadow)">
    <path d="M360 178C468 24 690-8 818 104c-56 78-130 137-218 164-70 21-146 22-240-90z" fill="url(#leaf)"/>
    <path d="M470 156c70 12 144 9 224-17" fill="none" stroke="#d9ead1" stroke-width="12" stroke-linecap="round" opacity=".45"/>
    <path d="M528 134c-18 39-40 74-67 105M602 126c-6 47-20 91-42 132M688 96c3 49-5 97-24 144M758 132c-6 38-20 73-43 106" fill="none" stroke="#eef8ea" stroke-width="18" stroke-linecap="round" opacity=".85"/>
  </g>
  <g filter="url(#softShadow)" transform="rotate(-18 402 653)">
    <path d="M86 622C188 450 430 386 590 495c-42 119-128 201-242 236-91 28-179 12-262-109z" fill="url(#leafLight)"/>
    <path d="M182 602c96 4 208-29 332-94" fill="none" stroke="#d7ecd0" stroke-width="13" stroke-linecap="round" opacity=".5"/>
    <path d="M244 565c-20 61-48 112-84 153M324 530c-4 69-20 129-48 180M408 496c10 70 4 135-18 194M498 498c-2 52-15 100-40 143" fill="none" stroke="#f2fbef" stroke-width="20" stroke-linecap="round" opacity=".88"/>
  </g>
  <g filter="url(#softShadow)" transform="rotate(13 640 810)">
    <path d="M392 856C512 678 746 628 900 742v282c-112 53-244 41-342-32-69-51-120-98-166-136z" fill="url(#leaf)"/>
    <path d="M498 856c112-8 234-45 370-111" fill="none" stroke="#d7ecd0" stroke-width="14" stroke-linecap="round" opacity=".42"/>
    <path d="M566 818c-22 70-53 128-95 173M654 780c-9 79-30 149-64 210M748 756c7 84-2 160-28 229M838 769c0 65-18 123-53 176" fill="none" stroke="#eef8ea" stroke-width="22" stroke-linecap="round" opacity=".88"/>
  </g>
  <path d="M-60 1100C140 912 320 763 510 640c98-63 198-114 316-154" fill="none" stroke="#4d7f3b" stroke-width="22" stroke-linecap="round" opacity=".42"/>
  <path d="M72 1100c168-152 309-269 454-360 92-58 185-101 284-132" fill="none" stroke="#83aa71" stroke-width="12" stroke-linecap="round" opacity=".34"/>
</svg>
